# xmcd
#
# Track frame offsets:
#	150
#	17738
#	29779
#	40965
#	60031
#	75287
#	89697
#	105925
#	123063
#	142625
#
# Disc length: 2064 seconds
#
# Revision: 0
# Processed by: cddbd v1.5.2PL0 Copyright (c) Steve Scherf et al.
# Submitted via: audiograbber 1.83.01
#
DISCID=69080e0a
DTITLE=Devastator - Beyong massacre
DYEAR=2007
DGENRE=Death Metal
TTITLE0=beyond massacre
TTITLE1=hunt
TTITLE2=beheaded
TTITLE3=exhuming eden
TTITLE4=pandemic desease
TTITLE5=slaughterfeast
TTITLE6=escape from reality
TTITLE7=spiritual surgery
TTITLE8=floating little bodies
TTITLE9=antihuman
EXTD=
EXTT0=
EXTT1=
EXTT2=
EXTT3=
EXTT4=
EXTT5=
EXTT6=
EXTT7=
EXTT8=
EXTT9=
PLAYORDER=
